<?xml version="1.0" encoding="UTF-8" standalone="no" ?>
<!DOCTYPE svg PUBLIC "-//W3C//DTD SVG 1.1//EN" "http://www.w3.org/Graphics/SVG/1.1/DTD/svg11.dtd">
<svg xmlns="http://www.w3.org/2000/svg" xmlns:xlink="http://www.w3.org/1999/xlink" version="1.1" width="1280" height="1024" viewBox="0 0 1280 1024" xml:space="preserve">
<desc>Created with Fabric.js 3.1.0</desc>
<defs>
</defs>
<g transform="matrix(1.9692780337941629 0 0 1.9692780337941629 640.0153846153846 512.012312418764)" id="background-logo"  >
<rect style="stroke: none; stroke-width: 1; stroke-dasharray: none; stroke-linecap: butt; stroke-dashoffset: 0; stroke-linejoin: miter; stroke-miterlimit: 4; fill: rgb(0,0,0); fill-rule: nonzero; opacity: 1;"  paint-order="stroke"  x="-325" y="-260" rx="0" ry="0" width="650" height="520" />
</g>
<g transform="matrix(1.9692780337941629 0 0 1.9692780337941629 643.2837322896357 673.0727133823816)" id="text-logo-path"  >
<linearGradient id="SVGID_204940" gradientUnits="userSpaceOnUse" gradientTransform="matrix(1 0 0 1 5.930000000000007 -43.89000000000001)"  x1="0" y1="0" x2="0" y2="75">
<stop offset="0%" style="stop-color:rgb(91,36,122);stop-opacity: 1"/>
<stop offset="100%" style="stop-color:rgb(27,206,223);stop-opacity: 1"/>
</linearGradient>
<filter id="SVGID_204939" y="-75.69169079973267%" height="251.38338159946534%" x="-27.374196212612826%" width="154.74839242522566%" >
	<feGaussianBlur in="SourceAlpha" stdDeviation="12.5"></feGaussianBlur>
	<feOffset dx="0" dy="0" result="oBlur" ></feOffset>
	<feFlood flood-color="rgb(0,0,0)" flood-opacity="1"/>
	<feComposite in2="oBlur" operator="in" />
	<feMerge>
		<feMergeNode></feMergeNode>
		<feMergeNode in="SourceGraphic"></feMergeNode>
	</feMerge>
</filter>
<path style="stroke: rgb(0,0,0); stroke-width: 1; stroke-dasharray: none; stroke-linecap: butt; stroke-dashoffset: 0; stroke-linejoin: miter; stroke-miterlimit: 10; fill: url(#SVGID_204940); fill-rule: nonzero; opacity: 1;filter: url(#SVGID_204939);"  paint-order="stroke"  transform=" translate(-175.44, 21.445000000000004)" d="M 10.57 0 L 5.93 0 L 5.93 -42.89 L 15.92 -42.89 Q 21.08 -42.89 23.73 -40.46 Q 26.39 -38.03 26.39 -33.64 L 26.39 -33.64 L 26.39 -22.43 Q 26.39 -18.01 23.75 -15.61 Q 21.11 -13.21 15.92 -13.21 L 15.92 -13.21 L 10.57 -13.21 L 10.57 0 Z M 10.57 -38.93 L 10.57 -17.14 L 15.92 -17.14 Q 21.79 -17.14 21.79 -22.43 L 21.79 -22.43 L 21.79 -33.64 Q 21.79 -36.16 20.27 -37.54 Q 18.76 -38.93 15.92 -38.93 L 15.92 -38.93 L 10.57 -38.93 Z M 35.96 -8.25 L 35.96 -8.25 L 35.96 -34.64 Q 35.96 -39.06 38.67 -41.48 Q 41.38 -43.89 46.79 -43.89 Q 52.21 -43.89 54.98 -41.48 Q 57.75 -39.06 57.75 -34.64 L 57.75 -34.64 L 57.75 -20.14 L 40.57 -20.14 L 40.57 -8.25 Q 40.57 -2.96 46.86 -2.96 Q 53.14 -2.96 53.14 -8.25 L 53.14 -8.25 L 53.14 -11.89 L 57.75 -11.89 L 57.75 -8.25 Q 57.75 -3.83 55.04 -1.42 Q 52.34 1 46.92 1 Q 41.51 1 38.74 -1.42 Q 35.96 -3.83 35.96 -8.25 Z M 40.57 -34.64 L 40.57 -24.11 L 53.14 -24.11 L 53.14 -34.64 Q 53.14 -39.93 46.86 -39.93 Q 40.57 -39.93 40.57 -34.64 L 40.57 -34.64 Z M 68.96 -7.61 L 68.96 -7.61 L 68.96 -42.89 L 83.5 -42.89 L 83.5 -38.93 L 73.57 -38.93 L 73.57 -7.32 Q 73.57 -5.48 74.54 -4.22 Q 75.51 -2.96 77.25 -2.96 Q 78.99 -2.96 79.92 -4.19 Q 80.86 -5.41 80.86 -7.32 L 80.86 -7.32 L 80.86 -15.18 L 85.46 -15.18 L 85.46 -7.61 Q 85.46 -3.45 83.26 -1.22 Q 81.05 1 77.28 1 Q 73.51 1 71.24 -1.21 Q 68.96 -3.42 68.96 -7.61 Z M 93.71 -8.25 L 93.71 -8.25 L 93.71 -34.64 Q 93.71 -39.06 96.42 -41.48 Q 99.13 -43.89 104.54 -43.89 Q 109.96 -43.89 112.73 -41.48 Q 115.5 -39.06 115.5 -34.64 L 115.5 -34.64 L 115.5 -20.14 L 98.32 -20.14 L 98.32 -8.25 Q 98.32 -2.96 104.61 -2.96 Q 110.89 -2.96 110.89 -8.25 L 110.89 -8.25 L 110.89 -11.89 L 115.5 -11.89 L 115.5 -8.25 Q 115.5 -3.83 112.79 -1.42 Q 110.09 1 104.67 1 Q 99.26 1 96.49 -1.42 Q 93.71 -3.83 93.71 -8.25 Z M 98.32 -34.64 L 98.32 -24.11 L 110.89 -24.11 L 110.89 -34.64 Q 110.89 -39.93 104.61 -39.93 Q 98.32 -39.93 98.32 -34.64 L 98.32 -34.64 Z M 132.32 0 L 127.71 0 L 127.71 -42.89 L 129.68 -42.89 L 131.61 -38.03 Q 133.74 -43.89 138.35 -43.89 L 138.35 -43.89 Q 146.21 -43.89 146.18 -35.32 L 146.18 -35.32 L 146.18 -31.03 L 141.76 -31.03 L 141.76 -35.58 Q 141.76 -39.93 138.12 -39.93 L 138.12 -39.93 Q 135.93 -39.93 134.13 -37.42 Q 132.32 -34.9 132.32 -30.16 L 132.32 -30.16 L 132.32 0 Z M 178.54 0 L 167.29 0 L 167.29 -3.96 L 170.61 -3.96 L 170.61 -38.93 L 167.29 -38.93 L 167.29 -42.89 L 178.54 -42.89 L 178.54 -38.93 L 175.22 -38.93 L 175.22 -3.96 L 178.54 -3.96 L 178.54 0 Z M 195.45 0 L 185.75 -42.89 L 190.36 -42.89 L 198.87 -5.09 L 207.47 -42.89 L 212.08 -42.89 L 202.38 0 L 195.45 0 Z M 219.98 -8.25 L 219.98 -8.25 L 219.98 -14.86 Q 219.98 -24.11 229.49 -24.11 L 229.49 -24.11 L 237.12 -24.11 L 237.12 -34.9 Q 237.12 -37.29 235.61 -38.61 Q 234.09 -39.93 231.13 -39.93 L 231.13 -39.93 Q 225.26 -39.93 225.26 -34.9 L 225.26 -34.9 L 225.26 -31.03 L 220.62 -31.03 L 220.62 -34.64 Q 220.62 -39.06 223.23 -41.48 Q 225.84 -43.89 231.13 -43.89 Q 236.41 -43.89 239.09 -41.48 Q 241.76 -39.06 241.76 -34.64 L 241.76 -34.64 L 241.76 0 L 239.77 0 L 238.06 -4.22 Q 236.67 -1.84 234.43 -0.42 Q 232.19 1 229.49 1 L 229.49 1 Q 219.98 1 219.98 -8.25 Z M 224.59 -14.86 L 224.59 -8.25 Q 224.59 -5.74 225.65 -4.35 Q 226.71 -2.96 229.49 -2.96 Q 232.26 -2.96 234.63 -5.11 Q 236.99 -7.25 237.12 -9.38 L 237.12 -9.38 L 237.12 -20.14 L 229.49 -20.14 Q 226.71 -20.14 225.65 -18.76 Q 224.59 -17.37 224.59 -14.86 L 224.59 -14.86 Z M 258.91 0 L 254.3 0 L 254.3 -42.89 L 256.27 -42.89 L 257.91 -38.61 Q 261.07 -43.89 266.71 -43.89 L 266.71 -43.89 Q 276.41 -43.89 276.41 -34.64 L 276.41 -34.64 L 276.41 0 L 271.8 0 L 271.8 -34.64 Q 271.8 -37.16 270.7 -38.54 Q 269.61 -39.93 266.71 -39.93 Q 263.81 -39.93 261.36 -37.69 Q 258.91 -35.45 258.91 -33.32 L 258.91 -33.32 L 258.91 0 Z M 287.94 -8.25 L 287.94 -8.25 L 287.94 -34.64 Q 287.94 -39.06 290.75 -41.48 Q 293.55 -43.89 299.13 -43.89 Q 304.7 -43.89 307.54 -41.48 Q 310.37 -39.06 310.37 -34.64 L 310.37 -34.64 L 310.37 -8.25 Q 310.37 -3.83 307.57 -1.42 Q 304.77 1 299.19 1 Q 293.62 1 290.78 -1.42 Q 287.94 -3.83 287.94 -8.25 Z M 292.55 -34.64 L 292.55 -8.25 Q 292.55 -2.96 299.16 -2.96 Q 305.77 -2.96 305.77 -8.25 L 305.77 -8.25 L 305.77 -34.64 Q 305.77 -39.93 299.16 -39.93 Q 292.55 -39.93 292.55 -34.64 L 292.55 -34.64 Z M 328.32 0 L 318.62 -42.89 L 323.23 -42.89 L 331.74 -5.09 L 340.34 -42.89 L 344.95 -42.89 L 335.25 0 L 328.32 0 Z" stroke-linecap="round" />
</g>
<g transform="matrix(1.9692780337941629 0 0 1.9692780337941629 640.0153846153846 315.0845090393478)" style="" id="shape-50-logo"  >
	<g transform="matrix(1 0 0 1 1.2950000000000017 0.8699999999999903)" id="Layer_1"  >
<polygon style="stroke: none; stroke-width: 1; stroke-dasharray: none; stroke-linecap: butt; stroke-dashoffset: 0; stroke-linejoin: miter; stroke-miterlimit: 4; fill: rgb(217,217,216); fill-rule: nonzero; opacity: 1;"  paint-order="stroke"  points="86.645,-97.77 77.21499999999999,-88.91999999999999 77.22500000000001,-81.52999999999999 -71.845,75.24000000000002 -71.885,75.16000000000001 -76.36500000000001,77.38000000000001 -82.805,78.46000000000002 -95.145,97.77 -74.545,85.88000000000001 -73.515,80.02 -72.435,78.07000000000001 78.80499999999999,-80.99 86.02499999999999,-80.74999999999999 95.145,-89.28999999999999 86.50500000000001,-89.72999999999999 86.645,-97.77 " />
</g>
	<g transform="matrix(1 0 0 1 94.525 -94.8)" id="Layer_1"  >
<polygon style="stroke: none; stroke-width: 1; stroke-dasharray: none; stroke-linecap: butt; stroke-dashoffset: 0; stroke-linejoin: miter; stroke-miterlimit: 4; fill: rgb(217,217,216); fill-rule: nonzero; opacity: 1;"  paint-order="stroke"  points="-0.08500000000000796,5.2 5.474999999999994,-0.009999999999999787 0.2150000000000034,-0.29000000000000004 0.2949999999999875,-5.2 -5.474999999999994,0.20999999999999996 -5.465000000000003,5.0200000000000005 -0.08500000000000796,5.2 " />
</g>
	<g transform="matrix(1 0 0 1 -94.525 -93.45)" id="Layer_1"  >
<polygon style="stroke: none; stroke-width: 1; stroke-dasharray: none; stroke-linecap: butt; stroke-dashoffset: 0; stroke-linejoin: miter; stroke-miterlimit: 4; fill: rgb(217,217,216); fill-rule: nonzero; opacity: 1;"  paint-order="stroke"  points="0.08499999999999996,5.199999999999999 5.455,5.02 5.475,0.21999999999999886 -0.29499999999999993,-5.200000000000001 -0.20500000000000007,-0.28000000000000114 -5.475,-0.010000000000000675 0.08499999999999996,5.199999999999999 " />
</g>
	<g transform="matrix(1 0 0 1 -1.2849999999999966 2.2250000000000085)" id="Layer_1"  >
<polygon style="stroke: none; stroke-width: 1; stroke-dasharray: none; stroke-linecap: butt; stroke-dashoffset: 0; stroke-linejoin: miter; stroke-miterlimit: 4; fill: rgb(217,217,216); fill-rule: nonzero; opacity: 1;"  paint-order="stroke"  points="82.79499999999999,78.46499999999999 76.35499999999999,77.385 72.435,75.43499999999999 -77.22500000000001,-81.965 -77.215,-88.92500000000001 -86.655,-97.775 -86.515,-89.73500000000001 -95.14500000000001,-89.29500000000002 -86.025,-80.75500000000001 -78.415,-81.00500000000001 71.85499999999999,77.02499999999999 73.505,80.015 74.535,85.865 95.14500000000001,97.77499999999999 82.79499999999999,78.46499999999999 " />
</g>
</g>
<g transform="matrix(1.9692780337941629 0 0 1.9692780337941629 638.8326639212602 227.46166846171252)" id="tagline-ff05774e-6382-4c44-b37d-ed939992c69a-logo-path"  >
<linearGradient id="SVGID_204942" gradientUnits="userSpaceOnUse" gradientTransform="matrix(1 0 0 1 1.3500000000000014 -19.95)"  x1="0" y1="0" x2="0" y2="34">
<stop offset="0%" style="stop-color:rgb(252,227,138);stop-opacity: 1"/>
<stop offset="100%" style="stop-color:rgb(243,129,129);stop-opacity: 1"/>
</linearGradient>
<path style="stroke: none; stroke-width: 0; stroke-dasharray: none; stroke-linecap: butt; stroke-dashoffset: 0; stroke-linejoin: miter; stroke-miterlimit: 4; fill: url(#SVGID_204942); fill-rule: nonzero; opacity: 1;"  paint-order="stroke"  transform=" translate(-24.715, 9.75)" d="M 4.26 0 L 1.35 -19.5 L 3.46 -19.5 L 5.9 -3.03 L 9.13 -19.5 L 11.37 -19.5 L 14.58 -3.03 L 17.04 -19.5 L 19.15 -19.5 L 16.23 0 L 13.29 0 L 10.22 -15.57 L 7.21 0 L 4.26 0 Z M 23.03 -3.75 L 23.03 -3.75 L 23.03 -15.75 Q 23.03 -17.75 24.26 -18.85 Q 25.49 -19.95 27.95 -19.95 Q 30.41 -19.95 31.67 -18.85 Q 32.93 -17.75 32.93 -15.75 L 32.93 -15.75 L 32.93 -9.16 L 25.12 -9.16 L 25.12 -3.75 Q 25.12 -1.35 27.98 -1.35 Q 30.83 -1.35 30.83 -3.75 L 30.83 -3.75 L 30.83 -5.41 L 32.93 -5.41 L 32.93 -3.75 Q 32.93 -1.74 31.7 -0.64 Q 30.47 0.45 28.01 0.45 Q 25.55 0.45 24.29 -0.64 Q 23.03 -1.74 23.03 -3.75 Z M 25.12 -15.75 L 25.12 -10.96 L 30.83 -10.96 L 30.83 -15.75 Q 30.83 -18.15 27.98 -18.15 Q 25.12 -18.15 25.12 -15.75 L 25.12 -15.75 Z M 43.32 0 L 38.48 0 L 38.48 -19.5 L 43.01 -19.5 Q 45.35 -19.5 46.57 -18.39 Q 47.78 -17.29 47.78 -15.29 L 47.78 -15.29 L 47.78 -13.51 Q 47.78 -10.96 45.64 -10.22 L 45.64 -10.22 Q 48.08 -9.57 48.08 -6.9 L 48.08 -6.9 L 48.08 -4.2 Q 48.08 -2.2 46.88 -1.1 Q 45.67 0 43.32 0 L 43.32 0 Z M 40.58 -9.45 L 40.58 -1.8 L 43.32 -1.8 Q 45.98 -1.8 45.98 -4.2 L 45.98 -4.2 L 45.98 -6.9 Q 45.98 -8.04 45.29 -8.75 Q 44.6 -9.45 43.32 -9.45 L 43.32 -9.45 L 40.58 -9.45 Z M 40.58 -17.7 L 40.58 -10.96 L 43.01 -10.96 Q 44.33 -10.96 45 -11.65 Q 45.67 -12.33 45.67 -13.51 L 45.67 -13.51 L 45.67 -15.29 Q 45.67 -16.44 44.99 -17.07 Q 44.3 -17.7 43.01 -17.7 L 43.01 -17.7 L 40.58 -17.7 Z" stroke-linecap="round" />
</g>
<g transform="matrix(1.9692780337941629 0 0 1.9692780337941629 839.3230528061488 313.95059874748904)" id="tagline-d0d7b71c-7ef2-4067-a5c7-1ba8ace02c99-logo-path"  >
<linearGradient id="SVGID_204944" gradientUnits="userSpaceOnUse" gradientTransform="matrix(1 0 0 1 3 -19.95)"  x1="0" y1="0" x2="0" y2="34">
<stop offset="0%" style="stop-color:rgb(248,77,158);stop-opacity: 1"/>
<stop offset="100%" style="stop-color:rgb(255,116,117);stop-opacity: 1"/>
</linearGradient>
<path style="stroke: none; stroke-width: 0; stroke-dasharray: none; stroke-linecap: butt; stroke-dashoffset: 0; stroke-linejoin: miter; stroke-miterlimit: 4; fill: url(#SVGID_204944); fill-rule: nonzero; opacity: 1;"  paint-order="stroke"  transform=" translate(-64.58549001991345, 9.75)" d="M 7.84 0 L 3 0 L 3 -19.5 L 7.84 -19.5 Q 10.18 -19.5 11.39 -18.39 Q 12.6 -17.29 12.6 -15.29 L 12.6 -15.29 L 12.6 -4.2 Q 12.6 -2.2 11.4 -1.1 Q 10.21 0 7.84 0 L 7.84 0 Z M 5.1 -17.7 L 5.1 -1.8 L 7.84 -1.8 Q 9.1 -1.8 9.8 -2.5 Q 10.5 -3.21 10.5 -4.2 L 10.5 -4.2 L 10.5 -15.29 Q 10.5 -16.26 9.8 -16.98 Q 9.1 -17.7 7.84 -17.7 L 7.84 -17.7 L 5.1 -17.7 Z M 17.7 -3.75 L 17.7 -3.75 L 17.7 -15.75 Q 17.7 -17.75 18.93 -18.85 Q 20.16 -19.95 22.62 -19.95 Q 25.08 -19.95 26.34 -18.85 Q 27.6 -17.75 27.6 -15.75 L 27.6 -15.75 L 27.6 -9.16 L 19.79 -9.16 L 19.79 -3.75 Q 19.79 -1.35 22.65 -1.35 Q 25.5 -1.35 25.5 -3.75 L 25.5 -3.75 L 25.5 -5.41 L 27.6 -5.41 L 27.6 -3.75 Q 27.6 -1.74 26.37 -0.64 Q 25.14 0.45 22.68 0.45 Q 20.21 0.45 18.96 -0.64 Q 17.7 -1.74 17.7 -3.75 Z M 19.79 -15.75 L 19.79 -10.96 L 25.5 -10.96 L 25.5 -15.75 Q 25.5 -18.15 22.65 -18.15 Q 19.79 -18.15 19.79 -15.75 L 19.79 -15.75 Z M 35.76 0 L 31.35 -19.5 L 33.44 -19.5 L 37.31 -2.31 L 41.22 -19.5 L 43.32 -19.5 L 38.91 0 L 35.76 0 Z M 47.05 -3.75 L 47.05 -3.75 L 47.05 -15.75 Q 47.05 -17.75 48.28 -18.85 Q 49.51 -19.95 51.97 -19.95 Q 54.43 -19.95 55.69 -18.85 Q 56.95 -17.75 56.95 -15.75 L 56.95 -15.75 L 56.95 -9.16 L 49.15 -9.16 L 49.15 -3.75 Q 49.15 -1.35 52 -1.35 Q 54.86 -1.35 54.86 -3.75 L 54.86 -3.75 L 54.86 -5.41 L 56.95 -5.41 L 56.95 -3.75 Q 56.95 -1.74 55.72 -0.64 Q 54.49 0.45 52.03 0.45 Q 49.57 0.45 48.31 -0.64 Q 47.05 -1.74 47.05 -3.75 Z M 49.15 -15.75 L 49.15 -10.96 L 54.86 -10.96 L 54.86 -15.75 Q 54.86 -18.15 52 -18.15 Q 49.15 -18.15 49.15 -15.75 L 49.15 -15.75 Z M 70.09 0 L 62.5 0 L 62.5 -19.5 L 64.6 -19.5 L 64.6 -1.8 L 70.09 -1.8 L 70.09 0 Z M 73.23 -3.75 L 73.23 -3.75 L 73.23 -15.75 Q 73.23 -17.75 74.5 -18.85 Q 75.78 -19.95 78.31 -19.95 Q 80.84 -19.95 82.13 -18.85 Q 83.42 -17.75 83.42 -15.75 L 83.42 -15.75 L 83.42 -3.75 Q 83.42 -1.74 82.15 -0.64 Q 80.87 0.45 78.34 0.45 Q 75.81 0.45 74.52 -0.64 Q 73.23 -1.74 73.23 -3.75 Z M 75.32 -15.75 L 75.32 -3.75 Q 75.32 -1.35 78.33 -1.35 Q 81.33 -1.35 81.33 -3.75 L 81.33 -3.75 L 81.33 -15.75 Q 81.33 -18.15 78.33 -18.15 Q 75.32 -18.15 75.32 -15.75 L 75.32 -15.75 Z M 90.78 0 L 88.67 0 L 88.67 -19.5 L 93.21 -19.5 Q 95.55 -19.5 96.76 -18.39 Q 97.97 -17.29 97.97 -15.29 L 97.97 -15.29 L 97.97 -10.2 Q 97.97 -8.19 96.77 -7.1 Q 95.57 -6.01 93.21 -6.01 L 93.21 -6.01 L 90.78 -6.01 L 90.78 0 Z M 90.78 -17.7 L 90.78 -7.79 L 93.21 -7.79 Q 95.87 -7.79 95.87 -10.2 L 95.87 -10.2 L 95.87 -15.29 Q 95.87 -16.44 95.19 -17.07 Q 94.5 -17.7 93.21 -17.7 L 93.21 -17.7 L 90.78 -17.7 Z M 102.32 -3.75 L 102.32 -3.75 L 102.32 -15.75 Q 102.32 -17.75 103.55 -18.85 Q 104.78 -19.95 107.24 -19.95 Q 109.7 -19.95 110.96 -18.85 Q 112.22 -17.75 112.22 -15.75 L 112.22 -15.75 L 112.22 -9.16 L 104.41 -9.16 L 104.41 -3.75 Q 104.41 -1.35 107.27 -1.35 Q 110.13 -1.35 110.13 -3.75 L 110.13 -3.75 L 110.13 -5.41 L 112.22 -5.41 L 112.22 -3.75 Q 112.22 -1.74 110.99 -0.64 Q 109.76 0.45 107.3 0.45 Q 104.84 0.45 103.58 -0.64 Q 102.32 -1.74 102.32 -3.75 Z M 104.41 -15.75 L 104.41 -10.96 L 110.13 -10.96 L 110.13 -15.75 Q 110.13 -18.15 107.27 -18.15 Q 104.41 -18.15 104.41 -15.75 L 104.41 -15.75 Z M 119.87 0 L 117.77 0 L 117.77 -19.5 L 118.67 -19.5 L 119.55 -17.29 Q 120.51 -19.95 122.61 -19.95 L 122.61 -19.95 Q 126.18 -19.95 126.17 -16.05 L 126.17 -16.05 L 126.17 -14.11 L 124.16 -14.11 L 124.16 -16.17 Q 124.16 -18.15 122.5 -18.15 L 122.5 -18.15 Q 121.51 -18.15 120.69 -17.01 Q 119.87 -15.86 119.87 -13.71 L 119.87 -13.71 L 119.87 0 Z" stroke-linecap="round" />
</g>
<g transform="matrix(1.9692780337941629 0 0 1.9692780337941629 442.94334700497757 313.95059874748904)" id="tagline-eac6a1d9-068e-4517-adc5-2718615120be-logo-path"  >
<linearGradient id="SVGID_204946" gradientUnits="userSpaceOnUse" gradientTransform="matrix(1 0 0 1 2.3999999999999986 -19.95)"  x1="0" y1="0" x2="0" y2="34">
<stop offset="0%" style="stop-color:rgb(248,77,158);stop-opacity: 1"/>
<stop offset="100%" style="stop-color:rgb(255,116,117);stop-opacity: 1"/>
</linearGradient>
<path style="stroke: none; stroke-width: 0; stroke-dasharray: none; stroke-linecap: butt; stroke-dashoffset: 0; stroke-linejoin: miter; stroke-miterlimit: 4; fill: url(#SVGID_204946); fill-rule: nonzero; opacity: 1;"  paint-order="stroke"  transform=" translate(-59.275, 9.75)" d="M 2.4 -3.75 L 2.4 -3.75 L 2.4 -6.3 L 4.5 -6.3 L 4.5 -3.63 Q 4.5 -2.55 5.25 -1.95 Q 6.01 -1.35 7.47 -1.35 Q 8.94 -1.35 9.69 -1.95 Q 10.44 -2.55 10.44 -3.58 Q 10.44 -4.61 10.22 -5.23 Q 9.99 -5.84 9.3 -6.53 L 9.3 -6.53 L 4.01 -11.7 Q 3.09 -12.63 2.75 -13.51 Q 2.4 -14.4 2.4 -15.75 L 2.4 -15.75 Q 2.4 -17.75 3.65 -18.85 Q 4.89 -19.95 7.41 -19.95 L 7.41 -19.95 Q 12.25 -19.95 12.25 -15.75 L 12.25 -15.75 L 12.25 -13.2 L 10.14 -13.2 L 10.14 -15.86 Q 10.14 -16.95 9.43 -17.55 Q 8.73 -18.15 7.32 -18.15 Q 5.9 -18.15 5.2 -17.55 Q 4.5 -16.95 4.5 -15.9 Q 4.5 -14.85 4.71 -14.25 Q 4.92 -13.65 5.64 -12.99 L 5.64 -12.99 L 11.02 -7.84 Q 11.88 -6.87 12.21 -5.98 Q 12.54 -5.1 12.54 -3.75 L 12.54 -3.75 Q 12.54 0.45 7.47 0.45 Q 2.4 0.45 2.4 -3.75 Z M 17.48 -3.75 L 17.48 -3.75 L 17.48 -15.75 Q 17.48 -17.75 18.75 -18.85 Q 20.02 -19.95 22.56 -19.95 Q 25.09 -19.95 26.38 -18.85 Q 27.67 -17.75 27.67 -15.75 L 27.67 -15.75 L 27.67 -3.75 Q 27.67 -1.74 26.4 -0.64 Q 25.12 0.45 22.59 0.45 Q 20.05 0.45 18.76 -0.64 Q 17.48 -1.74 17.48 -3.75 Z M 19.57 -15.75 L 19.57 -3.75 Q 19.57 -1.35 22.57 -1.35 Q 25.58 -1.35 25.58 -3.75 L 25.58 -3.75 L 25.58 -15.75 Q 25.58 -18.15 22.57 -18.15 Q 19.57 -18.15 19.57 -15.75 L 19.57 -15.75 Z M 35.32 0 L 33.22 0 L 33.22 -19.5 L 41.47 -19.5 L 41.47 -17.7 L 35.32 -17.7 L 35.32 -10.8 L 40.27 -10.8 L 40.27 -8.99 L 35.32 -8.99 L 35.32 0 Z M 45.21 -3.46 L 45.21 -3.46 L 45.21 -19.5 L 51.81 -19.5 L 51.81 -17.7 L 47.3 -17.7 L 47.3 -3.33 Q 47.3 -2.49 47.74 -1.92 Q 48.18 -1.35 48.97 -1.35 Q 49.76 -1.35 50.19 -1.9 Q 50.61 -2.46 50.61 -3.33 L 50.61 -3.33 L 50.61 -6.9 L 52.71 -6.9 L 52.71 -3.46 Q 52.71 -1.57 51.7 -0.56 Q 50.7 0.45 48.98 0.45 Q 47.27 0.45 46.24 -0.55 Q 45.21 -1.55 45.21 -3.46 Z M 56.6 -3.75 L 56.6 -3.75 L 56.6 -19.5 L 58.71 -19.5 L 58.71 -3.75 Q 58.71 -1.35 61.49 -1.35 Q 64.26 -1.35 64.26 -3.75 L 64.26 -3.75 L 64.26 -19.5 L 66.36 -19.5 L 66.36 -3.75 Q 66.36 -1.35 69.13 -1.35 Q 71.91 -1.35 71.91 -3.75 L 71.91 -3.75 L 71.91 -19.5 L 74 -19.5 L 74 -3.75 Q 74 -1.77 72.74 -0.66 Q 71.48 0.45 69.01 0.45 Q 66.53 0.45 65.3 -1.29 L 65.3 -1.29 Q 64.13 0.45 61.63 0.45 Q 59.12 0.45 57.86 -0.66 Q 56.6 -1.77 56.6 -3.75 Z M 79.1 -3.75 L 79.1 -3.75 L 79.1 -6.75 Q 79.1 -10.96 83.42 -10.96 L 83.42 -10.96 L 86.89 -10.96 L 86.89 -15.86 Q 86.89 -16.95 86.21 -17.55 Q 85.52 -18.15 84.17 -18.15 L 84.17 -18.15 Q 81.5 -18.15 81.5 -15.86 L 81.5 -15.86 L 81.5 -14.11 L 79.39 -14.11 L 79.39 -15.75 Q 79.39 -17.75 80.58 -18.85 Q 81.77 -19.95 84.17 -19.95 Q 86.57 -19.95 87.79 -18.85 Q 89 -17.75 89 -15.75 L 89 -15.75 L 89 0 L 88.1 0 L 87.32 -1.92 Q 86.69 -0.83 85.67 -0.19 Q 84.65 0.45 83.42 0.45 L 83.42 0.45 Q 79.1 0.45 79.1 -3.75 Z M 81.2 -6.75 L 81.2 -3.75 Q 81.2 -2.61 81.68 -1.98 Q 82.16 -1.35 83.42 -1.35 Q 84.68 -1.35 85.76 -2.32 Q 86.84 -3.3 86.89 -4.26 L 86.89 -4.26 L 86.89 -9.16 L 83.42 -9.16 Q 82.16 -9.16 81.68 -8.53 Q 81.2 -7.9 81.2 -6.75 L 81.2 -6.75 Z M 96.8 0 L 94.7 0 L 94.7 -19.5 L 95.6 -19.5 L 96.47 -17.29 Q 97.44 -19.95 99.54 -19.95 L 99.54 -19.95 Q 103.11 -19.95 103.1 -16.05 L 103.1 -16.05 L 103.1 -14.11 L 101.09 -14.11 L 101.09 -16.17 Q 101.09 -18.15 99.43 -18.15 L 99.43 -18.15 Q 98.44 -18.15 97.62 -17.01 Q 96.8 -15.86 96.8 -13.71 L 96.8 -13.71 L 96.8 0 Z M 106.25 -3.75 L 106.25 -3.75 L 106.25 -15.75 Q 106.25 -17.75 107.48 -18.85 Q 108.71 -19.95 111.17 -19.95 Q 113.63 -19.95 114.89 -18.85 Q 116.15 -17.75 116.15 -15.75 L 116.15 -15.75 L 116.15 -9.16 L 108.34 -9.16 L 108.34 -3.75 Q 108.34 -1.35 111.2 -1.35 Q 114.05 -1.35 114.05 -3.75 L 114.05 -3.75 L 114.05 -5.41 L 116.15 -5.41 L 116.15 -3.75 Q 116.15 -1.74 114.92 -0.64 Q 113.69 0.45 111.23 0.45 Q 108.76 0.45 107.5 -0.64 Q 106.25 -1.74 106.25 -3.75 Z M 108.34 -15.75 L 108.34 -10.96 L 114.05 -10.96 L 114.05 -15.75 Q 114.05 -18.15 111.2 -18.15 Q 108.34 -18.15 108.34 -15.75 L 108.34 -15.75 Z" stroke-linecap="round" />
</g>
<g transform="matrix(1.9692780337941629 0 0 1.9692780337941629 642.3952494267326 477.4991394540943)" id="tagline-7e69adc0-d2f2-495c-b0ce-e2d40366703f-logo-path"  >
<linearGradient id="SVGID_204948" gradientUnits="userSpaceOnUse" gradientTransform="matrix(1 0 0 1 3 -19.95)"  x1="0" y1="0" x2="0" y2="34">
<stop offset="0%" style="stop-color:rgb(252,227,138);stop-opacity: 1"/>
<stop offset="100%" style="stop-color:rgb(243,129,129);stop-opacity: 1"/>
</linearGradient>
<path style="stroke: none; stroke-width: 0; stroke-dasharray: none; stroke-linecap: butt; stroke-dashoffset: 0; stroke-linejoin: miter; stroke-miterlimit: 4; fill: url(#SVGID_204948); fill-rule: nonzero; opacity: 1;"  paint-order="stroke"  transform=" translate(-56.651342543101045, 9.75)" d="M 7.84 0 L 3 0 L 3 -19.5 L 7.84 -19.5 Q 10.18 -19.5 11.39 -18.39 Q 12.6 -17.29 12.6 -15.29 L 12.6 -15.29 L 12.6 -4.2 Q 12.6 -2.2 11.4 -1.1 Q 10.21 0 7.84 0 L 7.84 0 Z M 5.1 -17.7 L 5.1 -1.8 L 7.84 -1.8 Q 9.1 -1.8 9.8 -2.5 Q 10.5 -3.21 10.5 -4.2 L 10.5 -4.2 L 10.5 -15.29 Q 10.5 -16.26 9.8 -16.98 Q 9.1 -17.7 7.84 -17.7 L 7.84 -17.7 L 5.1 -17.7 Z M 17.7 -3.75 L 17.7 -3.75 L 17.7 -15.75 Q 17.7 -17.75 18.93 -18.85 Q 20.16 -19.95 22.62 -19.95 Q 25.08 -19.95 26.34 -18.85 Q 27.6 -17.75 27.6 -15.75 L 27.6 -15.75 L 27.6 -9.16 L 19.79 -9.16 L 19.79 -3.75 Q 19.79 -1.35 22.65 -1.35 Q 25.5 -1.35 25.5 -3.75 L 25.5 -3.75 L 25.5 -5.41 L 27.6 -5.41 L 27.6 -3.75 Q 27.6 -1.74 26.37 -0.64 Q 25.14 0.45 22.68 0.45 Q 20.21 0.45 18.96 -0.64 Q 17.7 -1.74 17.7 -3.75 Z M 19.79 -15.75 L 19.79 -10.96 L 25.5 -10.96 L 25.5 -15.75 Q 25.5 -18.15 22.65 -18.15 Q 19.79 -18.15 19.79 -15.75 L 19.79 -15.75 Z M 32.55 -3.75 L 32.55 -3.75 L 32.55 -6.3 L 34.64 -6.3 L 34.64 -3.63 Q 34.64 -2.55 35.4 -1.95 Q 36.15 -1.35 37.62 -1.35 Q 39.08 -1.35 39.84 -1.95 Q 40.59 -2.55 40.59 -3.58 Q 40.59 -4.61 40.36 -5.23 Q 40.14 -5.84 39.45 -6.53 L 39.45 -6.53 L 34.16 -11.7 Q 33.24 -12.63 32.89 -13.51 Q 32.55 -14.4 32.55 -15.75 L 32.55 -15.75 Q 32.55 -17.75 33.79 -18.85 Q 35.04 -19.95 37.56 -19.95 L 37.56 -19.95 Q 42.39 -19.95 42.39 -15.75 L 42.39 -15.75 L 42.39 -13.2 L 40.28 -13.2 L 40.28 -15.86 Q 40.28 -16.95 39.58 -17.55 Q 38.88 -18.15 37.46 -18.15 Q 36.05 -18.15 35.35 -17.55 Q 34.64 -16.95 34.64 -15.9 Q 34.64 -14.85 34.86 -14.25 Q 35.07 -13.65 35.79 -12.99 L 35.79 -12.99 L 41.16 -7.84 Q 42.03 -6.87 42.36 -5.98 Q 42.69 -5.1 42.69 -3.75 L 42.69 -3.75 Q 42.69 0.45 37.62 0.45 Q 32.55 0.45 32.55 -3.75 Z M 50.17 0 L 48.08 0 L 48.08 -19.5 L 50.17 -19.5 L 50.17 0 Z M 55.71 -3.75 L 55.71 -3.75 L 55.71 -15.75 Q 55.71 -17.75 56.94 -18.85 Q 58.17 -19.95 60.63 -19.95 Q 63.09 -19.95 64.35 -18.85 Q 65.61 -17.75 65.61 -15.75 L 65.61 -15.75 L 65.61 -14.11 L 63.52 -14.11 L 63.52 -15.75 Q 63.52 -18.15 60.66 -18.15 Q 57.8 -18.15 57.8 -15.75 L 57.8 -15.75 L 57.8 -3.75 Q 57.8 -1.35 60.66 -1.35 Q 63.52 -1.35 63.52 -3.75 L 63.52 -3.75 L 63.52 -8.1 L 60.15 -8.1 L 60.15 -9.9 L 65.61 -9.9 L 65.61 -3.75 Q 65.61 -1.74 64.38 -0.64 Q 63.15 0.45 60.69 0.45 Q 58.23 0.45 56.97 -0.64 Q 55.71 -1.74 55.71 -3.75 Z M 73.26 0 L 71.16 0 L 71.16 -19.5 L 72.06 -19.5 L 72.8 -17.55 Q 74.24 -19.95 76.8 -19.95 L 76.8 -19.95 Q 81.21 -19.95 81.21 -15.75 L 81.21 -15.75 L 81.21 0 L 79.12 0 L 79.12 -15.75 Q 79.12 -16.89 78.62 -17.52 Q 78.12 -18.15 76.8 -18.15 Q 75.48 -18.15 74.37 -17.13 Q 73.26 -16.11 73.26 -15.15 L 73.26 -15.15 L 73.26 0 Z M 86.46 -3.75 L 86.46 -3.75 L 86.46 -15.75 Q 86.46 -17.75 87.69 -18.85 Q 88.92 -19.95 91.38 -19.95 Q 93.84 -19.95 95.1 -18.85 Q 96.36 -17.75 96.36 -15.75 L 96.36 -15.75 L 96.36 -9.16 L 88.55 -9.16 L 88.55 -3.75 Q 88.55 -1.35 91.41 -1.35 Q 94.26 -1.35 94.26 -3.75 L 94.26 -3.75 L 94.26 -5.41 L 96.36 -5.41 L 96.36 -3.75 Q 96.36 -1.74 95.13 -0.64 Q 93.9 0.45 91.44 0.45 Q 88.97 0.45 87.71 -0.64 Q 86.46 -1.74 86.46 -3.75 Z M 88.55 -15.75 L 88.55 -10.96 L 94.26 -10.96 L 94.26 -15.75 Q 94.26 -18.15 91.41 -18.15 Q 88.55 -18.15 88.55 -15.75 L 88.55 -15.75 Z M 104 0 L 101.91 0 L 101.91 -19.5 L 102.8 -19.5 L 103.68 -17.29 Q 104.65 -19.95 106.74 -19.95 L 106.74 -19.95 Q 110.32 -19.95 110.3 -16.05 L 110.3 -16.05 L 110.3 -14.11 L 108.3 -14.11 L 108.3 -16.17 Q 108.3 -18.15 106.64 -18.15 L 106.64 -18.15 Q 105.64 -18.15 104.82 -17.01 Q 104 -15.86 104 -13.71 L 104 -13.71 L 104 0 Z" stroke-linecap="round" />
</g>
</svg>